<svg width="78" height="78" viewBox="0 0 78 78" fill="none" xmlns="http://www.w3.org/2000/svg">
<g clip-path="url(#clip0_1110_17423)">
<path d="M59.6671 6.91659L39.5669 0.214385C38.9088 -0.00481141 38.1973 -0.00481141 37.5392 0.214385L17.439 6.91659C14.2432 7.97817 11.4632 10.0199 9.49405 12.7516C7.52486 15.4834 6.46664 18.7662 6.46973 22.1337V38.5508C6.46973 62.8154 35.9864 76.2166 37.2505 76.7748C37.6606 76.957 38.1043 77.0512 38.5531 77.0512C39.0018 77.0512 39.4456 76.957 39.8556 76.7748C41.1197 76.2166 70.6364 62.8154 70.6364 38.5508V22.1337C70.6395 18.7662 69.5813 15.4834 67.6121 12.7516C65.6429 10.0199 62.8629 7.97817 59.6671 6.91659ZM64.2197 38.5508C64.2197 56.0522 43.9463 67.5316 38.5531 70.278C33.1534 67.5413 12.8864 56.0971 12.8864 38.5508V22.1337C12.8866 20.1134 13.5225 18.1443 14.7041 16.5055C15.8857 14.8667 17.5531 13.6412 19.4699 13.0028L38.5531 6.64068L57.6362 13.0028C59.5531 13.6412 61.2204 14.8667 62.402 16.5055C63.5836 18.1443 64.2195 20.1134 64.2197 22.1337V38.5508Z" fill="#BB8E34"/>
<path d="M49.1405 26.6799L35.704 40.1549L28.5045 32.6474C28.2156 32.3315 27.8663 32.0767 27.4774 31.8978C27.0884 31.719 26.6676 31.6198 26.2397 31.6061C25.8118 31.5924 25.3855 31.6644 24.9859 31.818C24.5863 31.9716 24.2215 32.2036 23.913 32.5004C23.6044 32.7972 23.3584 33.1527 23.1894 33.546C23.0203 33.9394 22.9317 34.3625 22.9288 34.7906C22.9258 35.2187 23.0086 35.6431 23.1722 36.0387C23.3358 36.4343 23.5769 36.7932 23.8813 37.0942L31.2797 44.7942C31.8315 45.3902 32.4984 45.868 33.2401 46.1989C33.9818 46.5298 34.7829 46.7068 35.5949 46.7192H35.7008C36.4966 46.7218 37.2851 46.5663 38.0203 46.2618C38.7556 45.9572 39.4231 45.5096 39.9839 44.945L53.6899 31.239C53.9893 30.9403 54.2269 30.5855 54.3891 30.195C54.5514 29.8044 54.6351 29.3858 54.6355 28.9629C54.636 28.54 54.5531 28.1211 54.3917 27.7302C54.2303 27.3394 53.9935 26.9841 53.6947 26.6848C53.396 26.3854 53.0413 26.1478 52.6507 25.9856C52.2602 25.8233 51.8415 25.7396 51.4186 25.7391C50.9957 25.7387 50.5769 25.8215 50.186 25.983C49.7951 26.1444 49.4399 26.3812 49.1405 26.6799Z" fill="#BB8E34"/>
</g>
<defs>
<clipPath id="clip0_1110_17423">
<rect width="77" height="77" fill="white" transform="translate(0.0527344 0.0507812)"/>
</clipPath>
</defs>
</svg>
