<svg width="78" height="77" viewBox="0 0 78 77" fill="none" xmlns="http://www.w3.org/2000/svg">
<g clip-path="url(#clip0_1110_17433)">
<path d="M39.1034 25.6833C36.5686 25.6833 34.0907 26.435 31.9831 27.8433C29.8754 29.2516 28.2327 31.2532 27.2627 33.5951C26.2927 35.9369 26.0389 38.5139 26.5334 41C27.0279 43.4861 28.2485 45.7697 30.0409 47.5621C31.8333 49.3545 34.117 50.5751 36.6031 51.0697C39.0892 51.5642 41.6661 51.3104 44.008 50.3403C46.3499 49.3703 48.3515 47.7276 49.7598 45.62C51.168 43.5124 51.9197 41.0345 51.9197 38.4996C51.9197 35.1005 50.5694 31.8407 48.1659 29.4372C45.7624 27.0336 42.5025 25.6833 39.1034 25.6833ZM39.1034 44.9078C37.836 44.9078 36.597 44.5319 35.5432 43.8278C34.4894 43.1237 33.6681 42.1229 33.1831 40.9519C32.698 39.781 32.5711 38.4925 32.8184 37.2495C33.0657 36.0064 33.676 34.8646 34.5722 33.9684C35.4684 33.0722 36.6102 32.4619 37.8532 32.2146C39.0963 31.9674 40.3848 32.0943 41.5557 32.5793C42.7266 33.0643 43.7274 33.8856 44.4316 34.9395C45.1357 35.9933 45.5116 37.2322 45.5116 38.4996C45.5116 40.1992 44.8364 41.8291 43.6346 43.0309C42.4329 44.2326 40.803 44.9078 39.1034 44.9078Z" fill="#BB8E34"/>
<path d="M68.8827 44.5874L67.4601 43.7671C68.1006 40.2825 68.1006 36.7104 67.4601 33.2257L68.8827 32.4055C69.9767 31.7743 70.9357 30.9339 71.7048 29.9321C72.474 28.9304 73.0384 27.787 73.3656 26.5671C73.6929 25.3472 73.7767 24.0749 73.6123 22.8226C73.4478 21.5704 73.0383 20.3628 72.4072 19.2688C71.776 18.1748 70.9356 17.2159 69.9338 16.4467C68.9321 15.6775 67.7886 15.1131 66.5688 14.7859C65.3489 14.4586 64.0766 14.3748 62.8243 14.5392C61.5721 14.7037 60.3645 15.1132 59.2705 15.7443L57.8447 16.5678C55.1518 14.267 52.0571 12.4834 48.7163 11.3067V9.663C48.7163 7.11368 47.7036 4.66877 45.9009 2.86613C44.0983 1.06349 41.6534 0.0507813 39.1041 0.0507812C36.5547 0.0507813 34.1098 1.06349 32.3072 2.86613C30.5046 4.66877 29.4918 7.11368 29.4918 9.663V11.3067C26.1512 12.4876 23.0576 14.2756 20.3666 16.5806L18.9344 15.7507C16.725 14.4761 14.0997 14.1313 11.6361 14.7923C9.17253 15.4532 7.07239 17.0658 5.79773 19.2752C4.52307 21.4846 4.17831 24.1099 4.83927 26.5735C5.50024 29.0371 7.1128 31.1372 9.32221 32.4119L10.7448 33.2321C10.1044 36.7168 10.1044 40.2889 10.7448 43.7735L9.32221 44.5938C7.1128 45.8684 5.50024 47.9686 4.83927 50.4322C4.17831 52.8958 4.52307 55.5211 5.79773 57.7305C7.07239 59.9399 9.17253 61.5525 11.6361 62.2134C14.0997 62.8744 16.725 62.5296 18.9344 61.255L20.3602 60.4315C23.0541 62.7326 26.1499 64.5163 29.4918 65.6926V67.3363C29.4918 69.8856 30.5046 72.3305 32.3072 74.1332C34.1098 75.9358 36.5547 76.9485 39.1041 76.9485C41.6534 76.9485 44.0983 75.9358 45.9009 74.1332C47.7036 72.3305 48.7163 69.8856 48.7163 67.3363V65.6926C52.0569 64.5117 55.1505 62.7237 57.8415 60.4187L59.2737 61.2453C61.4831 62.52 64.1084 62.8648 66.572 62.2038C69.0356 61.5428 71.1357 59.9303 72.4104 57.7209C73.6851 55.5115 74.0298 52.8862 73.3689 50.4226C72.7079 47.959 71.0953 45.8588 68.8859 44.5842L68.8827 44.5874ZM60.7187 32.4888C61.8038 36.4204 61.8038 40.5725 60.7187 44.5041C60.5293 45.1884 60.5725 45.9162 60.8416 46.5733C61.1107 47.2304 61.5904 47.7794 62.2054 48.1343L65.6786 50.14C66.415 50.5649 66.9524 51.2649 67.1726 52.086C67.3928 52.9071 67.2778 53.7821 66.8529 54.5184C66.428 55.2547 65.7281 55.7921 64.907 56.0123C64.0858 56.2326 63.2109 56.1176 62.4746 55.6927L58.9949 53.6805C58.3794 53.324 57.6628 53.1825 56.9579 53.2782C56.2531 53.3739 55.6001 53.7015 55.102 54.2092C52.2501 57.1206 48.6572 59.1979 44.7112 60.2168C44.0224 60.3939 43.4121 60.7951 42.9765 61.3572C42.5408 61.9193 42.3046 62.6104 42.3049 63.3216V67.3363C42.3049 68.1861 41.9674 69.001 41.3665 69.6019C40.7656 70.2028 39.9506 70.5404 39.1009 70.5404C38.2511 70.5404 37.4361 70.2028 36.8352 69.6019C36.2344 69.001 35.8968 68.1861 35.8968 67.3363V63.3248C35.8971 62.6136 35.6609 61.9225 35.2252 61.3604C34.7896 60.7983 34.1793 60.3971 33.4905 60.22C29.5442 59.1969 25.9524 57.1152 23.1029 54.1996C22.6048 53.6919 21.9518 53.3643 21.247 53.2686C20.5422 53.1729 19.8255 53.3144 19.21 53.6709L15.7368 55.6799C15.3722 55.8936 14.969 56.0331 14.5504 56.0903C14.1317 56.1476 13.7059 56.1214 13.2974 56.0134C12.8888 55.9054 12.5057 55.7177 12.1701 55.461C11.8344 55.2043 11.5528 54.8838 11.3415 54.5178C11.1303 54.1519 10.9934 53.7478 10.939 53.3288C10.8845 52.9097 10.9135 52.4841 11.0242 52.0763C11.1349 51.6685 11.3252 51.2866 11.5841 50.9527C11.843 50.6187 12.1654 50.3393 12.5327 50.1304L16.0059 48.1247C16.6209 47.7698 17.1007 47.2208 17.3698 46.5637C17.6388 45.9066 17.6821 45.1788 17.4926 44.4945C16.4076 40.5629 16.4076 36.4108 17.4926 32.4792C17.6786 31.7963 17.6334 31.0711 17.3638 30.4167C17.0943 29.7623 16.6157 29.2155 16.0027 28.8618L12.5295 26.856C11.7932 26.4312 11.2558 25.7312 11.0356 24.9101C10.8153 24.089 10.9303 23.214 11.3552 22.4777C11.7801 21.7414 12.4801 21.204 13.3012 20.9837C14.1223 20.7635 14.9972 20.8785 15.7336 21.3034L19.2132 23.3155C19.827 23.6728 20.5422 23.8161 21.2463 23.7227C21.9503 23.6293 22.6034 23.3046 23.1029 22.7997C25.9548 19.8883 29.5477 17.811 33.4937 16.7921C34.1846 16.6144 34.7965 16.2113 35.2324 15.6466C35.6682 15.0819 35.9032 14.3879 35.9 13.6745V9.663C35.9 8.81322 36.2376 7.99826 36.8384 7.39738C37.4393 6.7965 38.2543 6.45892 39.1041 6.45892C39.9538 6.45892 40.7688 6.7965 41.3697 7.39738C41.9706 7.99826 42.3081 8.81322 42.3081 9.663V13.6745C42.3078 14.3857 42.544 15.0767 42.9797 15.6388C43.4153 16.201 44.0256 16.6022 44.7144 16.7792C48.6618 17.8018 52.2548 19.8836 55.1052 22.7997C55.6034 23.3074 56.2563 23.635 56.9611 23.7307C57.666 23.8264 58.3826 23.6849 58.9981 23.3284L62.4714 21.3194C62.8359 21.1057 63.2391 20.9662 63.6577 20.909C64.0764 20.8517 64.5023 20.8779 64.9108 20.9859C65.3193 21.0939 65.7024 21.2816 66.0381 21.5383C66.3737 21.795 66.6553 22.1155 66.8666 22.4814C67.0779 22.8474 67.2147 23.2515 67.2691 23.6705C67.3236 24.0896 67.2947 24.5152 67.1839 24.923C67.0732 25.3308 66.8829 25.7127 66.6241 26.0466C66.3652 26.3806 66.0428 26.66 65.6754 26.8689L62.2022 28.8746C61.5904 29.2293 61.1131 29.7765 60.8448 30.4308C60.5764 31.0851 60.5321 31.8099 60.7187 32.492V32.4888Z" fill="#BB8E34"/>
</g>
<defs>
<clipPath id="clip0_1110_17433">
<rect width="76.8977" height="76.8977" fill="white" transform="translate(0.654297 0.0507812)"/>
</clipPath>
</defs>
</svg>
