<svg width="77" height="77" viewBox="0 0 77 77" fill="none" xmlns="http://www.w3.org/2000/svg">
<g filter="url(#filter0_d_1026_10838)">
<path d="M9 7.40698V64.0566H48.5M68 7.40728V64.0566H59" stroke="#BB8E34" stroke-width="1.66981" stroke-linecap="round" stroke-linejoin="round"/>
<path d="M30 1H46V7.40387H30V1Z" stroke="#BB8E34" stroke-width="1.66981" stroke-linejoin="round"/>
<path d="M5 8.88168V1H21V7.40387H9" stroke="#BB8E34" stroke-width="1.66981" stroke-linecap="round" stroke-linejoin="round"/>
<path d="M72 8.88168V1H56V7.40387H68" stroke="#BB8E34" stroke-width="1.66981" stroke-linecap="round" stroke-linejoin="round"/>
<path fill-rule="evenodd" clip-rule="evenodd" d="M33.2366 13.88C33.2366 14.366 32.8426 14.76 32.3566 14.76L16.1729 14.76C15.3952 14.76 14.7648 15.3904 14.7648 16.1681C14.7648 16.9458 15.3952 17.5762 16.1729 17.5762H30.0505C30.1284 17.5762 30.204 17.5863 30.2759 17.6053C31.9259 17.7154 33.2302 19.0887 33.2302 20.7665C33.2302 22.4493 31.9183 23.8257 30.2614 23.9287C30.1942 23.9451 30.1241 23.9538 30.0519 23.9538H16.1742C15.3966 23.9538 14.7661 24.5842 14.7661 25.3619C14.7661 26.1395 15.3966 26.7699 16.1742 26.7699H30.0519C30.1234 26.7699 30.193 26.7785 30.2596 26.7946C31.9178 26.8943 33.2318 28.2706 33.2318 29.9538C33.2318 31.7051 31.8095 33.1235 30.0582 33.1188L13.8776 33.0747C13.3916 33.0734 12.9987 32.6784 13 32.1923C13.0013 31.7063 13.3964 31.3134 13.8824 31.3147L30.063 31.3588C30.8404 31.3609 31.4718 30.7313 31.4718 29.9538C31.4718 29.1779 30.8428 28.5488 30.0668 28.5488H16.5896C16.5271 28.5488 16.4662 28.5423 16.4074 28.5299H16.1742C14.4245 28.5299 13.0061 27.1115 13.0061 25.3619C13.0061 23.6677 14.3359 22.2842 16.0086 22.198C16.0691 22.1849 16.1318 22.178 16.1962 22.178L30.0621 22.1749C30.8398 22.1747 31.4702 21.5442 31.4702 20.7665C31.4702 19.9887 30.8396 19.3582 30.0618 19.3582H16.588C16.5205 19.3582 16.4547 19.3506 16.3916 19.3362H16.1729C14.4232 19.3362 13.0048 17.9178 13.0048 16.1681C13.0048 14.4184 14.4232 13 16.1729 13H32.3566C32.8426 13 33.2366 13.394 33.2366 13.88Z" fill="#BB8E34"/>
<path d="M5 2.97388V67.0126M72 2.97388V67.0126" stroke="#BB8E34" stroke-width="1.66981" stroke-linejoin="round"/>
<path d="M21.8789 4.08495L29.5 4.07495" stroke="#BB8E34" stroke-width="1.76" stroke-linecap="round"/>
<path d="M33 50.2626L34.6211 50.2704" stroke="#BB8E34" stroke-width="1.76" stroke-linecap="round"/>
<path d="M33 53.2182L34.6211 53.2259" stroke="#BB8E34" stroke-width="1.76" stroke-linecap="round"/>
<path d="M33 56.174L34.6211 56.1817" stroke="#BB8E34" stroke-width="1.76" stroke-linecap="round"/>
<path d="M33 59.1296L34.6211 59.1373" stroke="#BB8E34" stroke-width="1.76" stroke-linecap="round"/>
<path d="M38 7.89648L38 37.4528" stroke="#BB8E34" stroke-width="1.76" stroke-linecap="round"/>
<path d="M38 46.8123V63.6845" stroke="#BB8E34" stroke-width="1.76" stroke-linecap="round"/>
<path fill-rule="evenodd" clip-rule="evenodd" d="M27.8076 47.4019C27.6425 47.2369 27.5498 47.0131 27.5498 46.7797C27.5498 45.4604 27.8176 44.1548 28.3372 42.9375C28.8567 41.7202 29.6175 40.616 30.5747 39.687C31.5318 38.7581 32.6667 38.0226 33.9139 37.5213C35.1611 37.0199 36.4969 36.7622 37.8453 36.7622C38.3313 36.7622 38.7253 37.1562 38.7253 37.6422C38.7253 38.1282 38.3313 38.5222 37.8453 38.5222C36.7208 38.5222 35.6079 38.7372 34.5704 39.1543C33.5329 39.5713 32.5918 40.1819 31.8004 40.95C31.009 41.718 30.3827 42.6284 29.9559 43.6284C29.6454 44.3558 29.4447 45.1207 29.3584 45.8997L37.8453 45.8997C38.3313 45.8997 38.7253 46.2937 38.7253 46.7797C38.7253 47.2657 38.3313 47.6597 37.8453 47.6597L28.4298 47.6597C28.1964 47.6597 27.9726 47.567 27.8076 47.4019Z" fill="#BB8E34"/>
<path fill-rule="evenodd" clip-rule="evenodd" d="M48.1276 56.9125C48.1276 56.4265 48.5216 56.0325 49.0076 56.0325C50.3237 56.0325 51.6294 56.2543 52.851 56.6874C54.0726 57.1206 55.1905 57.7583 56.1381 58.5695C57.0859 59.3809 57.8464 60.3516 58.3684 61.4305C58.5512 61.8081 58.6488 62.3184 58.7114 62.7887C58.7778 63.2874 58.8176 63.8532 58.842 64.4052C58.8841 65.359 58.8817 66.3206 58.8802 66.8937C58.88 66.9838 58.8798 67.0643 58.8798 67.1337C58.8798 67.6197 58.4858 68.0137 57.9998 68.0137C57.5138 68.0137 57.1198 67.6197 57.1198 67.1337C57.1198 67.0601 57.12 66.9762 57.1202 66.8836C57.1216 66.3072 57.1238 65.3915 57.0837 64.4828C57.0604 63.9555 57.0235 63.4471 56.9668 63.0209C56.9063 62.5663 56.8345 62.3011 56.7841 62.1971C56.374 61.3494 55.7682 60.5696 54.9935 59.9065C54.2186 59.2431 53.2917 58.7111 52.2628 58.3462C51.5046 58.0774 50.7043 57.9041 49.8876 57.8315L49.8876 67.1337C49.8876 67.6197 49.4936 68.0137 49.0076 68.0137C48.5216 68.0137 48.1276 67.6197 48.1276 67.1337L48.1276 56.9125Z" fill="#BB8E34"/>
<path d="M54 35.4824L68 35.4824" stroke="#BB8E34" stroke-width="1.76" stroke-linecap="round"/>
<path d="M5.04297 67.009L48.7991 67.009M71.9637 67.009L58 67.009" stroke="#BB8E34" stroke-width="1.76" stroke-linecap="round"/>
<path d="M54 30.5564L54 40.4085" stroke="#BB8E34" stroke-width="1.76" stroke-linecap="round"/>
<line x1="46.88" y1="4.06092" x2="55.12" y2="4.06092" stroke="#BB8E34" stroke-width="1.76" stroke-linecap="round"/>
<ellipse cx="61.5" cy="17.7486" rx="2.5" ry="4.92605" stroke="#BB8E34" stroke-width="1.76"/>
<ellipse cx="61.5" cy="29.0785" rx="2.5" ry="2.46303" stroke="#BB8E34" stroke-width="1.76"/>
</g>
<defs>
<filter id="filter0_d_1026_10838" x="0.163086" y="0.165039" width="76.6807" height="75.8486" filterUnits="userSpaceOnUse" color-interpolation-filters="sRGB">
<feFlood flood-opacity="0" result="BackgroundImageFix"/>
<feColorMatrix in="SourceAlpha" type="matrix" values="0 0 0 0 0 0 0 0 0 0 0 0 0 0 0 0 0 0 127 0" result="hardAlpha"/>
<feOffset dy="4"/>
<feGaussianBlur stdDeviation="2"/>
<feComposite in2="hardAlpha" operator="out"/>
<feColorMatrix type="matrix" values="0 0 0 0 0.4 0 0 0 0 0.4 0 0 0 0 0.4 0 0 0 0.25 0"/>
<feBlend mode="normal" in2="BackgroundImageFix" result="effect1_dropShadow_1026_10838"/>
<feBlend mode="normal" in="SourceGraphic" in2="effect1_dropShadow_1026_10838" result="shape"/>
</filter>
</defs>
</svg>
