<svg width="43" height="49" viewBox="0 0 43 49" fill="none" xmlns="http://www.w3.org/2000/svg">
<path d="M21.8861 5.01202C21.8861 4.7704 21.6902 4.57452 21.4486 4.57452C21.207 4.57452 21.0111 4.7704 21.0111 5.01202L21.0111 17.9588H21.8861L21.8861 5.01202Z" fill="white"/>
<path d="M21.8861 42.4715H21.0111V44.7933C21.0111 45.0349 21.207 45.2308 21.4486 45.2308C21.6902 45.2308 21.8861 45.0349 21.8861 44.7933V42.4715Z" fill="white"/>
<path d="M19.0361 17.9588V6.40222C19.0361 6.16059 18.8402 5.96472 18.5986 5.96472C18.357 5.96472 18.1611 6.16059 18.1611 6.40222V17.9588H19.0361Z" fill="white"/>
<path d="M18.1611 42.4715H19.0361V44.7933C19.0361 45.035 18.8402 45.2308 18.5986 45.2308C18.357 45.2308 18.1611 45.035 18.1611 44.7933V42.4715Z" fill="white"/>
<path d="M16.1861 17.9588L16.1861 7.68151C16.1861 7.43989 15.9902 7.24401 15.7486 7.24401C15.507 7.24401 15.3111 7.43989 15.3111 7.68151L15.3111 17.9588H16.1861Z" fill="white"/>
<path d="M15.3111 42.4715H16.1861V44.7933C16.1861 45.035 15.9902 45.2308 15.7486 45.2308C15.507 45.2308 15.3111 45.035 15.3111 44.7933V42.4715Z" fill="white"/>
<path d="M13.3361 17.9588V9.29772C13.3361 9.0561 13.1402 8.86022 12.8986 8.86022C12.657 8.86022 12.4611 9.0561 12.4611 9.29772L12.4611 17.9588H13.3361Z" fill="white"/>
<path d="M12.4611 42.4715H13.3361V44.7933C13.3361 45.0349 13.1402 45.2308 12.8986 45.2308C12.657 45.2308 12.4611 45.0349 12.4611 44.7933V42.4715Z" fill="white"/>
<path d="M10.4861 17.9588V10.9921C10.4861 10.7504 10.2902 10.5546 10.0486 10.5546C9.80698 10.5546 9.6111 10.7504 9.6111 10.9921V17.9588H10.4861Z" fill="white"/>
<path d="M9.6111 42.4715H10.4861V44.7933C10.4861 45.0349 10.2902 45.2308 10.0486 45.2308C9.80698 45.2308 9.6111 45.0349 9.6111 44.7933V42.4715Z" fill="white"/>
<path d="M7.6361 17.9588V12.3177C7.6361 12.0761 7.44023 11.8802 7.1986 11.8802C6.95698 11.8802 6.7611 12.0761 6.7611 12.3177L6.7611 17.9588H7.6361Z" fill="white"/>
<path d="M6.7611 42.4715H7.6361V44.7933C7.6361 45.035 7.44023 45.2308 7.1986 45.2308C6.95698 45.2308 6.7611 45.035 6.7611 44.7933V42.4715Z" fill="white"/>
<path d="M4.7861 17.9588V13.4115C4.7861 13.1699 4.59023 12.974 4.3486 12.974C4.10698 12.974 3.9111 13.1699 3.9111 13.4115V17.9588H4.7861Z" fill="white"/>
<path d="M3.9111 42.4715H4.7861V44.7933C4.7861 45.035 4.59023 45.2308 4.3486 45.2308C4.10698 45.2308 3.9111 45.035 3.9111 44.7933V42.4715Z" fill="white"/>
<path d="M23.8611 42.4715H24.7361V44.7933C24.7361 45.035 24.5402 45.2308 24.2986 45.2308C24.057 45.2308 23.8611 45.035 23.8611 44.7933V42.4715Z" fill="white"/>
<path d="M24.7361 17.9588H23.8611V6.40043C23.8611 6.15881 24.057 5.96293 24.2986 5.96293C24.5402 5.96293 24.7361 6.15881 24.7361 6.40043V17.9588Z" fill="white"/>
<path d="M26.7111 42.4715V44.7933C26.7111 45.035 26.907 45.2308 27.1486 45.2308C27.3902 45.2308 27.5861 45.035 27.5861 44.7933V42.4715H26.7111Z" fill="white"/>
<path d="M27.5861 17.9588H26.7111V7.68101C26.7111 7.43938 26.907 7.24351 27.1486 7.24351C27.3902 7.24351 27.5861 7.43938 27.5861 7.68101V17.9588Z" fill="white"/>
<path d="M29.5611 42.4715V44.7933C29.5611 45.035 29.757 45.2308 29.9986 45.2308C30.2402 45.2308 30.4361 45.035 30.4361 44.7933V42.4715H29.5611Z" fill="white"/>
<path d="M30.4361 17.9588H29.5611V9.2962C29.5611 9.05458 29.757 8.8587 29.9986 8.8587C30.2402 8.8587 30.4361 9.05458 30.4361 9.2962V17.9588Z" fill="white"/>
<path d="M32.4111 42.4715V44.7933C32.4111 45.0349 32.607 45.2308 32.8486 45.2308C33.0902 45.2308 33.2861 45.0349 33.2861 44.7933V42.4715H32.4111Z" fill="white"/>
<path d="M33.2861 17.9588H32.4111V10.9921C32.4111 10.7504 32.607 10.5546 32.8486 10.5546C33.0902 10.5546 33.2861 10.7504 33.2861 10.9921V17.9588Z" fill="white"/>
<path d="M35.2611 42.4715V44.7933C35.2611 45.035 35.457 45.2308 35.6986 45.2308C35.9402 45.2308 36.1361 45.035 36.1361 44.7933V42.4715H35.2611Z" fill="white"/>
<path d="M36.1361 17.9588H35.2611V12.3157C35.2611 12.074 35.457 11.8782 35.6986 11.8782C35.9402 11.8782 36.1361 12.074 36.1361 12.3157V17.9588Z" fill="white"/>
<path d="M38.1111 42.4715V44.7933C38.1111 45.035 38.307 45.2308 38.5486 45.2308C38.7902 45.2308 38.9861 45.035 38.9861 44.7933V42.4715H38.1111Z" fill="white"/>
<path d="M38.9861 17.9588H38.1111V13.4115C38.1111 13.1699 38.307 12.974 38.5486 12.974C38.7902 12.974 38.9861 13.1699 38.9861 13.4115V17.9588Z" fill="white"/>
<path d="M0 29.0749H1.94071V25.5245H6.39293V29.0749H8.32222V20.764H6.39293V24.0575H1.94071V20.764H0V29.0749Z" fill="white"/>
<path d="M9.35863 29.0749H11.208L13.5711 23.6808C13.6586 23.4791 13.7366 23.2736 13.8051 23.0644C13.8736 22.8551 13.9307 22.6553 13.9764 22.465H14.0392C14.0848 22.6477 14.1438 22.8436 14.2161 23.0529C14.2884 23.2622 14.3683 23.4715 14.4558 23.6808L16.7447 29.0749H18.851L15.0381 20.7298H13.1202L9.35863 29.0749ZM11.2366 27.3396H16.8304L16.3224 25.924H11.7331L11.2366 27.3396Z" fill="white"/>
<path d="M19.9844 29.0749H26.5486V27.6193H21.9251V20.764H19.9844V29.0749Z" fill="white"/>
<path d="M28.0017 29.0749H34.5659V27.6193H29.9424V20.764H28.0017V29.0749Z" fill="white"/>
<path d="M36.0189 29.0749H42.897V27.625H37.9425V25.5131H42.2007V24.0861H37.9425V22.2253H42.8286V20.764H36.0189V29.0749Z" fill="white"/>
<path d="M0 39.8007H0.79644V36.1286H6.52653V39.8007H7.31763V32.0181H6.52653V35.4444H0.79644V32.0181H0V39.8007Z" fill="white"/>
<path d="M9.3786 35.9629C9.3786 37.2315 9.76167 38.215 10.5278 38.9134C11.294 39.6119 12.2757 39.9611 13.473 39.9611C14.6704 39.9611 15.6503 39.6119 16.4129 38.9134C17.1791 38.215 17.5622 37.2315 17.5622 35.9629V35.856C17.5622 34.5874 17.1791 33.6038 16.4129 32.9054C15.6503 32.2069 14.6704 31.8577 13.473 31.8577C12.2686 31.8577 11.2851 32.2069 10.5225 32.9054C9.75989 33.6038 9.3786 34.5874 9.3786 35.856V35.9629ZM10.1857 35.9629V35.856C10.1857 34.7869 10.4868 33.9709 11.0891 33.4078C11.6913 32.8412 12.486 32.5579 13.473 32.5579C14.4566 32.5579 15.2494 32.8412 15.8517 33.4078C16.4539 33.9744 16.755 34.7905 16.755 35.856V35.9629C16.755 37.0319 16.4539 37.8497 15.8517 38.4163C15.253 38.9794 14.4601 39.2609 13.473 39.2609C12.486 39.2609 11.6913 38.9776 11.0891 38.411C10.4868 37.8444 10.1857 37.0283 10.1857 35.9629Z" fill="white"/>
<path d="M19.5323 36.8609C19.5323 37.8943 19.8637 38.6693 20.5265 39.186C21.1928 39.7027 22.0053 39.9611 22.9639 39.9611C23.9296 39.9611 24.7439 39.7027 25.4067 39.186C26.073 38.6693 26.4062 37.8943 26.4062 36.8609V32.0181H25.6151V36.8609C25.6151 37.6698 25.3675 38.272 24.8721 38.6676C24.3768 39.0631 23.7461 39.2609 22.9799 39.2609C22.196 39.2609 21.5581 39.0631 21.0663 38.6676C20.5746 38.272 20.3287 37.6698 20.3287 36.8609V32.0181H19.5323V36.8609Z" fill="white"/>
<path d="M28.1946 37.652C28.1946 38.3682 28.51 38.933 29.1407 39.3464C29.775 39.7562 30.6124 39.9611 31.653 39.9611C32.6935 39.9611 33.5184 39.7562 34.1278 39.3464C34.7372 38.933 35.0418 38.4056 35.0418 37.7642C35.0418 37.1477 34.8173 36.6738 34.3683 36.3424C33.9193 36.0074 33.1015 35.7188 31.9149 35.4764C30.8102 35.2555 30.0815 35.0364 29.7287 34.819C29.3759 34.598 29.1995 34.2898 29.1995 33.8943C29.1995 33.5165 29.3919 33.1994 29.7768 32.9428C30.1652 32.6862 30.7674 32.5579 31.5835 32.5579C32.4031 32.5579 33.0196 32.7076 33.4329 33.007C33.8463 33.3027 34.053 33.6787 34.053 34.1348V34.1989H34.8441V34.1401C34.8441 33.5023 34.5483 32.9624 33.9568 32.5205C33.3688 32.0787 32.5777 31.8577 31.5835 31.8577C30.5893 31.8577 29.8089 32.0608 29.2423 32.4671C28.6792 32.8698 28.3977 33.3722 28.3977 33.9744C28.3977 34.566 28.599 35.0185 29.0017 35.3321C29.4044 35.6457 30.1973 35.9272 31.3803 36.1767C32.5634 36.4119 33.3367 36.6453 33.7002 36.8769C34.0637 37.105 34.2454 37.4096 34.2454 37.7909C34.2454 38.2114 34.0227 38.5624 33.5772 38.8439C33.1354 39.1219 32.4939 39.2609 31.653 39.2609C30.8084 39.2609 30.1545 39.1219 29.6913 38.8439C29.228 38.566 28.9964 38.1687 28.9964 37.652V37.5878H28.1946V37.652Z" fill="white"/>
<path d="M36.905 39.8007H42.897V39.1112H37.7015V36.1286H42.1861V35.4444H37.7015V32.7076H42.8276V32.0181H36.905V39.8007Z" fill="white"/>
<path fill-rule="evenodd" clip-rule="evenodd" d="M21.5977 0.790833L42.897 12.3939V18.0914H41.0102V13.5147L21.5913 2.93601L1.88685 13.5185V17.8798H0L0 12.3901L21.5977 0.790833ZM0 42.4356H1.88685V46.5992H41.0102V42.4228H42.897V48.4861H0V42.4356Z" fill="white"/>
</svg>
