<svg width="30" height="31" viewBox="0 0 30 31" fill="none" xmlns="http://www.w3.org/2000/svg">
<path d="M28.5524 7.57332C28.4154 7.19707 28.2057 6.85138 27.9352 6.55616C27.6646 6.26094 27.3386 6.02193 26.9756 5.85259C26.6127 5.68339 26.2201 5.58736 25.82 5.56984C25.4199 5.55232 25.0204 5.61386 24.644 5.75082L17.4106 8.38357C17.3653 8.39997 17.3168 8.40543 17.269 8.39941C17.2212 8.39338 17.1755 8.37628 17.1357 8.34922C17.0959 8.32217 17.063 8.28614 17.0397 8.24394C17.0166 8.20175 17.0037 8.15465 17.0021 8.10657C17.0512 6.27257 16.6231 4.45722 15.7597 2.83841C14.2117 0.682554 12.5312 0.508871 11.47 1.0703C10.9551 1.36356 10.5646 1.834 10.3711 2.39403C10.1778 2.95405 10.1949 3.56538 10.4192 4.11377C11.5646 7.26113 10.376 11.5878 8.74108 13.8898C8.68389 13.9702 8.64716 14.0636 8.63385 14.1616C8.62067 14.2594 8.6316 14.3592 8.66538 14.452L12.8855 26.0466C12.9339 26.1798 13.0273 26.2919 13.1492 26.3637C13.2713 26.4356 13.4146 26.4628 13.5545 26.4405C13.9926 26.3705 14.3914 26.3111 14.7693 26.258C16.4453 26.064 18.092 25.6699 19.6741 25.0841L27.1242 22.3724C29.3673 21.556 29.2443 20.173 28.9731 19.4281C28.8295 19.0327 28.5965 18.676 28.2925 18.3855C28.7862 17.8584 29.0521 17.158 29.0324 16.436C29.0127 15.7141 28.709 15.0292 28.1872 14.5298C28.5333 14.1595 28.7704 13.7005 28.8717 13.2038C28.9732 12.707 28.9352 12.192 28.762 11.7155C28.6065 11.2859 28.3451 10.9025 28.0019 10.6007C28.3538 10.1902 28.5902 9.69356 28.687 9.16158C28.7837 8.62959 28.7373 8.08148 28.5524 7.57332Z" fill="#955B32"/>
<path d="M6.95755 15.1104C6.84695 14.8065 6.62014 14.5589 6.32688 14.4221C6.03376 14.2854 5.6983 14.2708 5.39424 14.3814L1.6692 15.7373C1.36529 15.8479 1.11773 16.0747 0.980911 16.3679C0.844234 16.6611 0.829656 16.9965 0.940259 17.3006L5.52911 29.9083C5.63971 30.2124 5.86666 30.46 6.15978 30.5966C6.45304 30.7333 6.78849 30.748 7.09241 30.6373L10.8175 29.2816C11.1215 29.1709 11.3691 28.944 11.5057 28.6509C11.6424 28.3577 11.6571 28.0222 11.5465 27.7183L6.95755 15.1104ZM9.09714 26.3382C9.1591 26.5082 9.16919 26.6927 9.12616 26.8685C9.08312 27.0443 8.98892 27.2033 8.85561 27.3255C8.72215 27.4477 8.55548 27.5276 8.37675 27.5553C8.19788 27.5827 8.01494 27.5567 7.85093 27.4801C7.68692 27.4037 7.5494 27.2804 7.45548 27.1256C7.3617 26.971 7.31572 26.792 7.32371 26.6111C7.33156 26.4304 7.39282 26.2561 7.49978 26.1101C7.60688 25.9642 7.75462 25.8533 7.92466 25.7915C8.15274 25.7085 8.40422 25.7194 8.62417 25.8219C8.84411 25.9245 9.01416 26.1103 9.09714 26.3382Z" fill="#955B32"/>
</svg>
