<svg width="60" height="44" viewBox="0 0 60 44" fill="none" xmlns="http://www.w3.org/2000/svg">
<path fill-rule="evenodd" clip-rule="evenodd" d="M0.516618 12.5938L11.6902 6.21616C19.5012 1.75848 22.9741 -0.101355 23.2304 0.0370824C23.4321 0.145923 24.5869 0.88871 25.7968 1.68735L27.9965 3.13903L28.0689 1.57278L28.141 0.00653076H33.8685H39.5961L39.6621 4.9411L39.7284 9.87615L41.9801 11.2347L44.2319 12.5938L44.241 17.421L44.25 18.5819V22.2482H42.5452H40.8404L40.7732 18.2974L40.706 14.3462L38.5674 13.0177L36.4288 11.6892V7.43679V3.18391H33.8624H31.2961V5.87245C31.2961 7.35135 31.2472 8.561 31.1878 8.561C31.1282 8.561 29.2499 7.45971 27.0137 6.11352L22.9481 3.66653L13.4962 9.01068L4.04399 14.3539L3.98069 27.589L3.91763 40.8236H13.5739H23.2304V33.8578V26.892H29.8296H36.4288V33.8578V40.8236H59.7578C59.2222 42.1336 58.8685 42.7453 58.2052 44.0009H57.9819H33.2514V37.1574V30.3138H29.9518H26.6522V37.1574V44.0009H13.5761H0.5L0.508309 28.2974L0.516618 12.5938Z" fill="black"/>
</svg>
