<svg width="80" height="40" viewBox="0 0 80 40" fill="none" xmlns="http://www.w3.org/2000/svg">
<rect width="80" height="40" rx="20" fill="#6A6A6A"/>
<path d="M45.8693 19.2312C45.8808 18.3496 46.1186 17.4852 46.5605 16.7185C47.0023 15.9517 47.6339 15.3075 48.3966 14.8458C47.9121 14.1643 47.273 13.6035 46.53 13.2079C45.7869 12.8123 44.9605 12.5928 44.1163 12.5668C42.3154 12.3806 40.5695 13.6281 39.6518 13.6281C38.7163 13.6281 37.3034 12.5853 35.7819 12.6161C34.7977 12.6474 33.8386 12.9293 32.9979 13.4342C32.1573 13.9391 31.4637 14.6499 30.9849 15.4973C28.9108 19.0339 30.4579 24.2316 32.4447 27.0904C33.4388 28.4902 34.6005 30.0539 36.1207 29.9984C37.6082 29.9377 38.1638 29.0642 39.9594 29.0642C41.7383 29.0642 42.2595 29.9984 43.8105 29.9632C45.4067 29.9376 46.4124 28.5571 47.3716 27.144C48.0858 26.1466 48.6354 25.0442 49 23.8777C48.0726 23.4914 47.2813 22.8448 46.7245 22.0185C46.1678 21.1922 45.8704 20.2228 45.8693 19.2312Z" fill="white"/>
<path d="M42.9398 10.6868C43.8101 9.65786 44.2388 8.3353 44.135 7C42.8054 7.13754 41.5771 7.76341 40.6951 8.7529C40.2638 9.23629 39.9335 9.79865 39.723 10.4078C39.5126 11.017 39.4261 11.6611 39.4685 12.3032C40.1336 12.31 40.7915 12.168 41.3928 11.888C41.9941 11.608 42.523 11.1973 42.9398 10.6868Z" fill="white"/>
</svg>
