<svg width="41" height="40" viewBox="0 0 41 40" fill="none" xmlns="http://www.w3.org/2000/svg">
<g opacity="0.9" clip-path="url(#clip0_107_828)">
<path d="M8.81271 15.9902C13.6405 15.9902 17.5542 19.904 17.5542 24.7317C17.5542 29.5594 13.6405 33.4732 8.81271 33.4732C3.98493 33.4732 0.071251 29.5594 0.071251 24.7317L0.0322266 23.4829C0.0322266 13.8274 7.85958 6 17.5152 6V10.9951C14.1796 10.9951 11.0436 12.2941 8.68495 14.6527C8.23094 15.1068 7.81658 15.5899 7.4428 16.0974C7.88916 16.0272 8.34661 15.9902 8.81271 15.9902ZM31.2908 15.9902C36.1185 15.9902 40.0322 19.904 40.0322 24.7317C40.0322 29.5594 36.1185 33.4732 31.2908 33.4732C26.4631 33.4732 22.5493 29.5594 22.5493 24.7317L22.5103 23.4829C22.5103 13.8274 30.3376 6 39.9932 6V10.9951C36.6577 10.9951 33.5216 12.2941 31.163 14.6527C30.7089 15.1068 30.2945 15.5899 29.9208 16.0974C30.3671 16.0272 30.8246 15.9902 31.2908 15.9902Z" fill="#FFC700" fill-opacity="0.5"/>
</g>
<defs>
<clipPath id="clip0_107_828">
<rect width="40" height="40" fill="white" transform="translate(0.0322266)"/>
</clipPath>
</defs>
</svg>
