<svg width="96" height="16" viewBox="0 0 96 16" fill="none" xmlns="http://www.w3.org/2000/svg">
<path d="M7.52266 0.845492C7.67233 0.384837 8.32404 0.384836 8.47371 0.845491L9.90656 5.25532C9.97349 5.46133 10.1655 5.60081 10.3821 5.60081H15.0189C15.5032 5.60081 15.7046 6.22062 15.3127 6.50532L11.5615 9.23075C11.3863 9.35807 11.3129 9.58375 11.3799 9.78976L12.8127 14.1996C12.9624 14.6602 12.4352 15.0433 12.0433 14.7586L8.29208 12.0332C8.11684 11.9059 7.87954 11.9059 7.70429 12.0332L3.95307 14.7586C3.56121 15.0433 3.03397 14.6602 3.18365 14.1996L4.61649 9.78976C4.68343 9.58375 4.6101 9.35807 4.43485 9.23075L0.683628 6.50532C0.291772 6.22062 0.493159 5.60081 0.977521 5.60081H5.61429C5.8309 5.60081 6.02288 5.46133 6.08982 5.25532L7.52266 0.845492Z" fill="#FE7B5E"/>
<path d="M27.5227 0.845492C27.6723 0.384837 28.324 0.384836 28.4737 0.845491L29.9066 5.25532C29.9735 5.46133 30.1655 5.60081 30.3821 5.60081H35.0189C35.5032 5.60081 35.7046 6.22062 35.3127 6.50532L31.5615 9.23075C31.3863 9.35807 31.3129 9.58375 31.3799 9.78976L32.8127 14.1996C32.9624 14.6602 32.4352 15.0433 32.0433 14.7586L28.2921 12.0332C28.1168 11.9059 27.8795 11.9059 27.7043 12.0332L23.9531 14.7586C23.5612 15.0433 23.034 14.6602 23.1836 14.1996L24.6165 9.78976C24.6834 9.58375 24.6101 9.35807 24.4349 9.23075L20.6836 6.50532C20.2918 6.22062 20.4932 5.60081 20.9775 5.60081H25.6143C25.8309 5.60081 26.0229 5.46133 26.0898 5.25532L27.5227 0.845492Z" fill="#FE7B5E"/>
<path d="M47.5227 0.845492C47.6723 0.384837 48.324 0.384836 48.4737 0.845491L49.9066 5.25532C49.9735 5.46133 50.1655 5.60081 50.3821 5.60081H55.0189C55.5032 5.60081 55.7046 6.22062 55.3127 6.50532L51.5615 9.23075C51.3863 9.35807 51.3129 9.58375 51.3799 9.78976L52.8127 14.1996C52.9624 14.6602 52.4352 15.0433 52.0433 14.7586L48.2921 12.0332C48.1168 11.9059 47.8795 11.9059 47.7043 12.0332L43.9531 14.7586C43.5612 15.0433 43.034 14.6602 43.1836 14.1996L44.6165 9.78976C44.6834 9.58375 44.6101 9.35807 44.4349 9.23075L40.6836 6.50532C40.2918 6.22062 40.4932 5.60081 40.9775 5.60081H45.6143C45.8309 5.60081 46.0229 5.46133 46.0898 5.25532L47.5227 0.845492Z" fill="#FE7B5E"/>
<path d="M67.5227 0.845492C67.6723 0.384837 68.324 0.384836 68.4737 0.845491L69.9066 5.25532C69.9735 5.46133 70.1655 5.60081 70.3821 5.60081H75.0189C75.5032 5.60081 75.7046 6.22062 75.3127 6.50532L71.5615 9.23075C71.3863 9.35807 71.3129 9.58375 71.3799 9.78976L72.8127 14.1996C72.9624 14.6602 72.4352 15.0433 72.0433 14.7586L68.2921 12.0332C68.1168 11.9059 67.8795 11.9059 67.7043 12.0332L63.9531 14.7586C63.5612 15.0433 63.034 14.6602 63.1836 14.1996L64.6165 9.78976C64.6834 9.58375 64.6101 9.35807 64.4349 9.23075L60.6836 6.50532C60.2918 6.22062 60.4932 5.60081 60.9775 5.60081H65.6143C65.8309 5.60081 66.0229 5.46133 66.0898 5.25532L67.5227 0.845492Z" fill="#FE7B5E"/>
<path d="M87.5227 0.845492C87.6723 0.384837 88.324 0.384836 88.4737 0.845491L89.9066 5.25532C89.9735 5.46133 90.1655 5.60081 90.3821 5.60081H95.0189C95.5032 5.60081 95.7046 6.22062 95.3127 6.50532L91.5615 9.23075C91.3863 9.35807 91.3129 9.58375 91.3799 9.78976L92.8127 14.1996C92.9624 14.6602 92.4352 15.0433 92.0433 14.7586L88.2921 12.0332C88.1168 11.9059 87.8795 11.9059 87.7043 12.0332L83.9531 14.7586C83.5612 15.0433 83.034 14.6602 83.1836 14.1996L84.6165 9.78976C84.6834 9.58375 84.6101 9.35807 84.4349 9.23075L80.6836 6.50532C80.2918 6.22062 80.4932 5.60081 80.9775 5.60081H85.6143C85.8309 5.60081 86.0229 5.46133 86.0898 5.25532L87.5227 0.845492Z" fill="#E0E0E0"/>
<g clip-path="url(#clip0_3681_26004)">
<path d="M87.5227 0.845492C87.6723 0.384837 88.324 0.384836 88.4737 0.845491L89.9066 5.25532C89.9735 5.46133 90.1655 5.60081 90.3821 5.60081H95.0189C95.5032 5.60081 95.7046 6.22062 95.3127 6.50532L91.5615 9.23075C91.3863 9.35807 91.3129 9.58375 91.3799 9.78976L92.8127 14.1996C92.9624 14.6602 92.4352 15.0433 92.0433 14.7586L88.2921 12.0332C88.1168 11.9059 87.8795 11.9059 87.7043 12.0332L83.9531 14.7586C83.5612 15.0433 83.034 14.6602 83.1836 14.1996L84.6165 9.78976C84.6834 9.58375 84.6101 9.35807 84.4349 9.23075L80.6836 6.50532C80.2918 6.22062 80.4932 5.60081 80.9775 5.60081H85.6143C85.8309 5.60081 86.0229 5.46133 86.0898 5.25532L87.5227 0.845492Z" fill="#FE7B5E"/>
</g>
<defs>
<clipPath id="clip0_3681_26004">
<rect width="8" height="16" fill="white" transform="translate(80)"/>
</clipPath>
</defs>
</svg>
