<svg width="25" height="25" viewBox="0 0 25 25" fill="none" xmlns="http://www.w3.org/2000/svg">
<g clip-path="url(#clip0_1005_9643)">
<path d="M21.4079 12.6662V11.2422C21.4079 8.85524 20.4597 6.56605 18.7719 4.87823C17.084 3.1904 14.7949 2.24219 12.4079 2.24219C10.021 2.24219 7.73178 3.1904 6.04395 4.87823C4.35612 6.56605 3.40791 8.85524 3.40791 11.2422V12.6662C2.35907 13.128 1.50071 13.9361 0.976531 14.9553C0.452352 15.9744 0.294171 17.1426 0.528467 18.2644C0.762764 19.3862 1.37532 20.3935 2.26358 21.1176C3.15184 21.8418 4.2619 22.2388 5.40791 22.2422C5.93834 22.2422 6.44705 22.0315 6.82212 21.6564C7.1972 21.2813 7.40791 20.7726 7.40791 20.2422V14.2422C7.40791 13.7118 7.1972 13.203 6.82212 12.828C6.44705 12.4529 5.93834 12.2422 5.40791 12.2422V11.2422C5.40791 9.38567 6.14541 7.60519 7.45816 6.29244C8.77092 4.97968 10.5514 4.24219 12.4079 4.24219C14.2644 4.24219 16.0449 4.97968 17.3577 6.29244C18.6704 7.60519 19.4079 9.38567 19.4079 11.2422V12.2422C18.8775 12.2422 18.3688 12.4529 17.9937 12.828C17.6186 13.203 17.4079 13.7118 17.4079 14.2422V20.2422H14.4079C14.1427 20.2422 13.8883 20.3475 13.7008 20.5351C13.5133 20.7226 13.4079 20.977 13.4079 21.2422C13.4079 21.5074 13.5133 21.7618 13.7008 21.9493C13.8883 22.1368 14.1427 22.2422 14.4079 22.2422H19.4079C20.5539 22.2388 21.664 21.8418 22.5522 21.1176C23.4405 20.3935 24.0531 19.3862 24.2874 18.2644C24.5216 17.1426 24.3635 15.9744 23.8393 14.9553C23.3151 13.9361 22.4568 13.128 21.4079 12.6662ZM5.40791 20.2422C4.61226 20.2422 3.8492 19.9261 3.28659 19.3635C2.72398 18.8009 2.40791 18.0378 2.40791 17.2422C2.40791 16.4465 2.72398 15.6835 3.28659 15.1209C3.8492 14.5583 4.61226 14.2422 5.40791 14.2422V20.2422ZM19.4079 20.2422V14.2422C20.2036 14.2422 20.9666 14.5583 21.5292 15.1209C22.0918 15.6835 22.4079 16.4465 22.4079 17.2422C22.4079 18.0378 22.0918 18.8009 21.5292 19.3635C20.9666 19.9261 20.2036 20.2422 19.4079 20.2422Z" fill="#BB8E34"/>
</g>
<defs>
<clipPath id="clip0_1005_9643">
<rect width="24" height="24" fill="white" transform="translate(0.408203 0.242188)"/>
</clipPath>
</defs>
</svg>
