<svg width="34" height="21" viewBox="0 0 34 21" fill="none" xmlns="http://www.w3.org/2000/svg">
<path d="M33.8242 10.5C33.8242 15.9872 29.3627 20.5 23.8242 20.5C18.337 20.5 13.8242 15.9872 13.8242 10.5C13.8242 5.01282 18.2858 0.5 23.7729 0.5C29.3627 0.5 33.8242 5.01282 33.8242 10.5Z" fill="#F9B50B"/>
<path d="M20.4399 10.5513C20.4399 9.83333 20.3374 9.11539 20.2348 8.44872H14.081C14.1322 8.08974 14.2348 7.78205 14.3374 7.3718H19.8245C19.722 7.01282 19.5681 6.65385 19.4143 6.29487H14.7476C14.9015 5.9359 15.1066 5.62821 15.3117 5.21795H18.8502C18.6451 4.85897 18.3886 4.5 18.081 4.14103H16.1322C16.4399 3.78205 16.7476 3.47436 17.1579 3.11538C15.4143 1.47436 13.0553 0.5 10.4399 0.5C5.00403 0.653846 0.491211 5.01282 0.491211 10.5C0.491211 15.9872 4.95275 20.5 10.4912 20.5C13.1066 20.5 15.4143 19.4744 17.2092 17.8846C17.5681 17.5769 17.8758 17.2179 18.2348 16.8077H16.1835C15.9271 16.5 15.6707 16.141 15.4656 15.7821H18.9527C19.1579 15.4744 19.363 15.1154 19.5168 14.7051H14.8502C14.6963 14.3974 14.5425 14.0385 14.4399 13.6282H19.9271C20.2348 12.7051 20.4399 11.6795 20.4399 10.5513Z" fill="#C8191C"/>
<path d="M14.0297 13.0641L14.1835 12.1411C14.1322 12.1411 14.0297 12.1923 13.9271 12.1923C13.5681 12.1923 13.5169 11.9872 13.5681 11.8846L13.8758 10.0385H14.4399L14.5938 9.01285H14.081L14.1835 8.39746H13.1066C13.1066 8.39746 12.4912 11.8846 12.4912 12.2949C12.4912 12.9103 12.8502 13.218 13.363 13.218C13.6707 13.218 13.9271 13.1154 14.0297 13.0641Z" fill="white"/>
<path d="M14.3887 11.3718C14.3887 12.859 15.4143 13.218 16.2348 13.218C17.0041 13.218 17.363 13.0641 17.363 13.0641L17.5682 12.0385C17.5682 12.0385 17.0041 12.2949 16.44 12.2949C15.2605 12.2949 15.4656 11.4231 15.4656 11.4231H17.6194C17.6194 11.4231 17.7733 10.7565 17.7733 10.4488C17.7733 9.7821 17.4143 8.9103 16.2348 8.9103C15.2092 8.85902 14.3887 10.0385 14.3887 11.3718ZM16.2348 9.83338C16.7989 9.83338 16.6964 10.5 16.6964 10.5513H15.5169C15.5682 10.5 15.6707 9.83338 16.2348 9.83338Z" fill="white"/>
<path d="M22.9524 13.064L23.1575 11.8845C23.1575 11.8845 22.6447 12.1409 22.2344 12.1409C21.5165 12.1409 21.1575 11.5768 21.1575 10.9102C21.1575 9.62811 21.7729 8.96144 22.5421 8.96144C23.0549 8.96144 23.5165 9.26914 23.5165 9.26914L23.6703 8.14093C23.6703 8.14093 23.0549 7.88452 22.4396 7.88452C21.2088 7.88452 20.0293 8.96144 20.0293 10.9614C20.0293 12.2948 20.6447 13.1666 21.9267 13.1666C22.3883 13.2179 22.9524 13.064 22.9524 13.064Z" fill="white"/>
<path d="M8.23438 8.85889C7.51643 8.85889 6.95232 9.06402 6.95232 9.06402L6.79848 9.98709C6.79848 9.98709 7.26002 9.78196 7.97796 9.78196C8.33694 9.78196 8.64463 9.83325 8.64463 10.1409C8.64463 10.3461 8.59335 10.3973 8.59335 10.3973H8.13181C7.20873 10.3973 6.23438 10.7563 6.23438 11.9871C6.23438 12.9615 6.84976 13.1666 7.26002 13.1666C7.97796 13.1666 8.33694 12.705 8.38822 12.705L8.33694 13.1153H9.20873L9.61899 10.1922C9.61899 8.91017 8.59335 8.85889 8.23438 8.85889ZM8.4395 11.2179C8.4395 11.3717 8.33694 12.2435 7.72155 12.2435C7.41386 12.2435 7.3113 11.9871 7.3113 11.8332C7.3113 11.5768 7.46514 11.2179 8.28566 11.2179C8.38822 11.2179 8.4395 11.2179 8.4395 11.2179Z" fill="white"/>
<path d="M10.6453 13.1666C10.9017 13.1666 12.2351 13.2179 12.2351 11.782C12.2351 10.4486 10.953 10.7051 10.953 10.1922C10.953 9.93582 11.1582 9.83326 11.5171 9.83326C11.671 9.83326 12.2351 9.88454 12.2351 9.88454L12.3889 8.91018C12.3889 8.91018 12.0299 8.80762 11.3633 8.80762C10.5941 8.80762 9.77354 9.11531 9.77354 10.1922C9.77354 11.423 11.1069 11.3204 11.1069 11.782C11.1069 12.0897 10.7479 12.141 10.4915 12.141C10.0299 12.141 9.51713 11.9871 9.51713 11.9871L9.36328 12.9615C9.46585 13.064 9.77354 13.1666 10.6453 13.1666Z" fill="white"/>
<path d="M31.7737 8.03857L31.5686 9.47447C31.5686 9.47447 31.1583 8.96165 30.5429 8.96165C29.5686 8.96165 28.748 10.1411 28.748 11.5258C28.748 12.3975 29.1583 13.2693 30.0814 13.2693C30.6968 13.2693 31.107 12.8591 31.107 12.8591L31.0557 13.2181H32.1327L32.9019 8.14114L31.7737 8.03857ZM31.2609 10.8078C31.2609 11.3719 31.0045 12.1411 30.3891 12.1411C30.0301 12.1411 29.825 11.8334 29.825 11.2693C29.825 10.3975 30.1839 9.88473 30.6968 9.88473C31.0557 9.93601 31.2609 10.1924 31.2609 10.8078Z" fill="white"/>
<path d="M2.4397 13.1155L3.05509 9.32063L3.15765 13.1155H3.8756L5.26022 9.32063L4.69611 13.1155H5.82432L6.69611 8.03857H4.95252L3.8756 11.1668L3.82432 8.03857H2.28586L1.41406 13.1155H2.4397Z" fill="white"/>
<path d="M18.8504 13.1153C19.1581 11.3717 19.2094 9.93578 19.9786 10.1922C20.0812 9.52553 20.235 9.21784 20.3376 8.96143H20.1324C19.6709 8.96143 19.2606 9.57681 19.2606 9.57681L19.3632 9.01271H18.3376L17.6709 13.1153H18.8504Z" fill="white"/>
<path d="M25.4141 8.85889C24.6961 8.85889 24.132 9.06402 24.132 9.06402L23.9782 9.98709C23.9782 9.98709 24.4397 9.78196 25.1577 9.78196C25.5166 9.78196 25.8243 9.83325 25.8243 10.1409C25.8243 10.3461 25.773 10.3973 25.773 10.3973H25.3115C24.3884 10.3973 23.4141 10.7563 23.4141 11.9871C23.4141 12.9615 24.0294 13.1666 24.4397 13.1666C25.1577 13.1666 25.5166 12.705 25.5679 12.705L25.5166 13.1153H26.491L26.9012 10.1922C26.9012 8.91017 25.773 8.85889 25.4141 8.85889ZM25.6705 11.2179C25.6705 11.3717 25.5679 12.2435 24.9525 12.2435C24.6448 12.2435 24.5423 11.9871 24.5423 11.8332C24.5423 11.5768 24.6961 11.2179 25.5166 11.2179C25.6192 11.2179 25.6192 11.2179 25.6705 11.2179Z" fill="white"/>
<path d="M27.7225 13.1153C28.0301 11.3717 28.0814 9.93578 28.8507 10.1922C28.9532 9.52553 29.1071 9.21784 29.2096 8.96143H29.0045C28.543 8.96143 28.1327 9.57681 28.1327 9.57681L28.2353 9.01271H27.2096L26.543 13.1153H27.7225Z" fill="white"/>
</svg>
