<svg width="25" height="25" viewBox="0 0 25 25" fill="none" xmlns="http://www.w3.org/2000/svg">
<g clip-path="url(#clip0_1005_9655)">
<path d="M19.4082 1.24219H5.4082C4.08261 1.24378 2.81176 1.77107 1.87442 2.70841C0.937085 3.64575 0.409791 4.91659 0.408203 6.24219L0.408203 18.2422C0.409791 19.5678 0.937085 20.8386 1.87442 21.776C2.81176 22.7133 4.08261 23.2406 5.4082 23.2422H19.4082C20.7338 23.2406 22.0046 22.7133 22.942 21.776C23.8793 20.8386 24.4066 19.5678 24.4082 18.2422V6.24219C24.4066 4.91659 23.8793 3.64575 22.942 2.70841C22.0046 1.77107 20.7338 1.24378 19.4082 1.24219ZM5.4082 3.24219H19.4082C20.007 3.24337 20.5917 3.4237 21.0872 3.75999C21.5826 4.09628 21.9661 4.57313 22.1882 5.12919L14.5302 12.7882C13.9666 13.3495 13.2036 13.6647 12.4082 13.6647C11.6128 13.6647 10.8498 13.3495 10.2862 12.7882L2.6282 5.12919C2.85035 4.57313 3.23382 4.09628 3.72925 3.75999C4.22468 3.4237 4.80942 3.24337 5.4082 3.24219ZM19.4082 21.2422H5.4082C4.61255 21.2422 3.84949 20.9261 3.28688 20.3635C2.72427 19.8009 2.4082 19.0378 2.4082 18.2422V7.74219L8.8722 14.2022C9.81083 15.1384 11.0825 15.6642 12.4082 15.6642C13.7339 15.6642 15.0056 15.1384 15.9442 14.2022L22.4082 7.74219V18.2422C22.4082 19.0378 22.0921 19.8009 21.5295 20.3635C20.9669 20.9261 20.2039 21.2422 19.4082 21.2422Z" fill="#BB8E34"/>
</g>
<defs>
<clipPath id="clip0_1005_9655">
<rect width="24" height="24" fill="white" transform="translate(0.408203 0.242188)"/>
</clipPath>
</defs>
</svg>
