<svg width="70" height="21" viewBox="0 0 70 21" fill="none" xmlns="http://www.w3.org/2000/svg">
<path d="M62.9036 0.5H49.6133C50.3875 4.8871 54.6455 9.01614 59.2907 9.01614H69.8714C70.0004 8.62904 70.0004 7.98387 70.0004 7.59677C70.0004 3.72581 66.7746 0.5 62.9036 0.5Z" fill="white"/>
<path d="M50.7744 9.79028V20.4999H57.226V14.8225H62.9034C66.0002 14.8225 68.7099 12.629 69.6131 9.79028H50.7744Z" fill="#798797"/>
<path d="M28.0645 0.5V20.371H33.7419C33.7419 20.371 35.1612 20.371 35.9354 18.9516C39.8064 11.3387 40.9677 9.01614 40.9677 9.01614H41.7419V20.371H48.1935V0.5H42.5161C42.5161 0.5 41.0967 0.62904 40.3225 1.91936C37.0967 8.50001 35.2903 11.8548 35.2903 11.8548H34.5161V0.5H28.0645Z" fill="#798797"/>
<path d="M0.967773 20.5001V0.62915H7.41939C7.41939 0.62915 9.22585 0.629146 10.2581 3.46786C12.8388 10.9517 13.0968 11.984 13.0968 11.984C13.0968 11.984 13.6129 10.1775 15.9355 3.46786C16.9678 0.629146 18.7742 0.62915 18.7742 0.62915H25.2259V20.5001H18.7742V9.79045H18L14.3872 20.5001H11.5484L7.93555 9.79045H7.16135V20.5001H0.967773Z" fill="#798797"/>
</svg>
