<svg width="10" height="17" viewBox="0 0 10 17" fill="none" xmlns="http://www.w3.org/2000/svg">
<path d="M9.1718 10.0565C9.53536 9.6929 9.58729 9.17353 9.27567 8.65416C9.01598 8.23866 8.54855 8.03091 8.02918 8.13478C7.82143 8.18672 7.61368 8.2906 7.40593 8.44641C5.79587 9.53709 3.61451 9.48515 2.00445 8.39447C1.90058 8.34253 1.7967 8.29059 1.69283 8.23866C1.12152 7.97897 0.550213 8.08285 0.238589 8.60222C-0.124971 9.1216 -0.0730405 9.69291 0.394395 10.1603C0.498269 10.2642 0.602144 10.3162 0.654081 10.42L0.706022 10.472C1.43314 11.0433 2.31608 11.4068 3.4587 11.5626L2.78351 12.2378C2.2122 12.8091 1.58896 13.4324 1.01765 14.0037C0.861837 14.1595 0.654081 14.4192 0.654081 14.7828C0.654081 15.2502 0.913772 15.7176 1.38121 15.9254C1.53702 16.0292 1.69283 16.0292 1.84864 16.0292C2.10833 16.0292 2.41995 15.9254 2.6277 15.6657C3.40676 14.8866 4.03001 14.2634 4.65326 13.6401C4.70519 13.5882 4.70519 13.5882 4.70519 13.5882C4.70519 13.5882 4.75713 13.5882 4.75713 13.6401C5.17263 14.1076 5.64006 14.5231 6.05556 14.9905C6.26331 15.1983 6.47106 15.406 6.67881 15.6138C6.93849 15.8734 7.14624 15.9773 7.45787 15.9773C7.9253 16.0293 8.44468 15.7176 8.65242 15.2502C8.86017 14.8347 8.7563 14.3153 8.39274 14.0037C7.87337 13.4843 7.35399 12.913 6.78268 12.3936L5.89975 11.5107C6.36718 11.4588 6.88656 11.3549 7.35399 11.1471C8.13305 10.8875 8.70436 10.5239 9.1718 10.0565Z" fill="#798797"/>
<path d="M4.70519 8.60222C6.93849 8.60222 8.7563 6.83634 8.7563 4.60304C8.7563 3.51236 8.3408 2.47362 7.56174 1.69456C6.78268 0.9155 5.79588 0.5 4.75713 0.5C2.52383 0.5 0.757958 2.3178 0.706021 4.49917C0.706021 5.58985 1.12152 6.57666 1.90058 7.35572C2.6277 8.18671 3.61451 8.60222 4.70519 8.60222ZM3.56257 3.40849C3.87419 3.09687 4.28969 2.94105 4.70519 2.94105C5.64006 2.94105 6.31525 3.66817 6.31525 4.55111C6.31525 5.48598 5.58812 6.16116 4.70519 6.16116C3.77032 6.16116 3.09514 5.43404 3.09514 4.55111C3.09514 4.13561 3.25095 3.72011 3.56257 3.40849Z" fill="#798797"/>
<path d="M9.1718 10.0565C9.53536 9.6929 9.58729 9.17353 9.27567 8.65416C9.01598 8.23866 8.54855 8.03091 8.02918 8.13478C7.82143 8.18672 7.61368 8.2906 7.40593 8.44641C5.79587 9.53709 3.61451 9.48515 2.00445 8.39447C1.90058 8.34253 1.7967 8.29059 1.69283 8.23866C1.12152 7.97897 0.550213 8.08285 0.238589 8.60222C-0.124971 9.1216 -0.0730405 9.69291 0.394395 10.1603C0.498269 10.2642 0.602144 10.3162 0.654081 10.42L0.706022 10.472C1.43314 11.0433 2.31608 11.4068 3.4587 11.5626L2.78351 12.2378C2.2122 12.8091 1.58896 13.4324 1.01765 14.0037C0.861837 14.1595 0.654081 14.4192 0.654081 14.7828C0.654081 15.2502 0.913772 15.7176 1.38121 15.9254C1.53702 16.0292 1.69283 16.0292 1.84864 16.0292C2.10833 16.0292 2.41995 15.9254 2.6277 15.6657C3.40676 14.8866 4.03001 14.2634 4.65326 13.6401C4.70519 13.5882 4.70519 13.5882 4.70519 13.5882C4.70519 13.5882 4.75713 13.5882 4.75713 13.6401C5.17263 14.1076 5.64006 14.5231 6.05556 14.9905C6.26331 15.1983 6.47106 15.406 6.67881 15.6138C6.93849 15.8734 7.14624 15.9773 7.45787 15.9773C7.9253 16.0293 8.44468 15.7176 8.65242 15.2502C8.86017 14.8347 8.7563 14.3153 8.39274 14.0037C7.87337 13.4843 7.35399 12.913 6.78268 12.3936L5.89975 11.5107C6.36718 11.4588 6.88656 11.3549 7.35399 11.1471C8.13305 10.8875 8.70436 10.5239 9.1718 10.0565Z" fill="#798797"/>
</svg>
