<svg width="66" height="21" viewBox="0 0 66 21" fill="none" xmlns="http://www.w3.org/2000/svg">
<path d="M61.5866 0.785645H57.4913C56.2533 0.785645 55.3009 1.1666 54.7294 2.40469L46.9199 20.2142H52.4437C52.4437 20.2142 53.3961 17.8333 53.5866 17.2618C54.158 17.2618 59.5866 17.2618 60.3485 17.2618C60.539 17.9285 61.0152 20.119 61.0152 20.119H65.9675L61.5866 0.785645ZM55.1104 13.2618C55.5866 12.119 57.2056 7.83326 57.2056 7.83326C57.2056 7.9285 57.6818 6.69041 57.8723 6.02374L58.2533 7.73802C58.2533 7.73802 59.3009 12.4047 59.4913 13.3571H55.1104V13.2618Z" fill="#798797"/>
<path d="M47.3001 13.8333C47.3001 17.8333 43.681 20.5 38.062 20.5C35.681 20.5 33.3953 20.0238 32.1572 19.4524L32.9191 15.0714L33.5858 15.3571C35.3001 16.119 36.4429 16.4048 38.5382 16.4048C40.062 16.4048 41.681 15.8333 41.681 14.5C41.681 13.6429 41.0144 13.0714 38.9191 12.119C36.9191 11.1667 34.2525 9.64286 34.2525 6.88095C34.2525 3.07143 37.9667 0.5 43.2048 0.5C45.2048 0.5 46.9191 0.880952 47.9667 1.35714L47.2048 5.54762L46.8239 5.16667C45.8715 4.78571 44.6334 4.40476 42.8239 4.40476C40.8239 4.5 39.8715 5.35714 39.8715 6.11905C39.8715 6.97619 41.0144 7.64286 42.8239 8.5C45.8715 9.92857 47.3001 11.5476 47.3001 13.8333Z" fill="#798797"/>
<path d="M0.824219 0.976167L0.919457 0.595215H9.10993C10.2528 0.595215 11.1099 0.976167 11.3956 2.21426L13.2052 10.7857C11.3956 6.21426 7.20517 2.49998 0.824219 0.976167Z" fill="white"/>
<path d="M24.7292 0.785668L16.4435 20.119H10.8244L6.0625 3.92853C9.49107 6.119 12.3482 9.54757 13.3958 11.9285L13.9673 13.9285L19.1101 0.69043H24.7292V0.785668Z" fill="#798797"/>
<path d="M26.9193 0.69043H32.1574L28.824 20.119H23.5859L26.9193 0.69043Z" fill="#798797"/>
</svg>
