<svg width="43" height="43" viewBox="0 0 43 43" fill="none" xmlns="http://www.w3.org/2000/svg">
<path d="M28.8345 24.2494C28.2768 23.6464 27.6506 23.1107 26.9685 22.6532C29.7209 20.5251 31.6498 17.5081 32.4261 14.1167C32.4834 13.8716 32.4917 13.6176 32.4505 13.3693C32.4093 13.121 32.3194 12.8833 32.1859 12.6699C32.0525 12.4565 31.8782 12.2716 31.673 12.1258C31.4678 11.98 31.2358 11.8762 30.9904 11.8204C30.745 11.7646 30.4909 11.7579 30.2429 11.8007C29.9949 11.8434 29.7577 11.9348 29.5451 12.0695C29.3325 12.2043 29.1487 12.3797 29.0042 12.5858C28.8597 12.7919 28.7573 13.0245 28.703 13.2703C28.3414 14.8567 27.6382 16.3451 26.6422 17.6317C25.6463 18.9184 24.3817 19.9723 22.9366 20.7201V13.6973C22.9248 13.5568 22.8968 13.4182 22.8532 13.2841C22.8406 13.1737 22.8185 13.0646 22.7873 12.958C22.7059 12.7844 22.5985 12.6241 22.4689 12.4828C22.4348 12.4422 22.4175 12.3888 22.3802 12.3512C22.2404 12.2221 22.082 12.1146 21.9104 12.0323C21.8617 12.0063 21.8255 11.9624 21.7743 11.9407C21.628 11.8919 21.4765 11.8608 21.3229 11.8478C21.2281 11.8201 21.1312 11.8001 21.0331 11.7883L19.784 11.7844H19.7784C19.3318 11.7822 18.8987 11.9375 18.5552 12.2229C18.2117 12.5083 17.9796 12.9056 17.8999 13.345C17.8201 13.7845 17.8977 14.2379 18.119 14.6259C18.3403 15.0138 18.6912 15.3114 19.11 15.4663V24.8031C16.0848 21.6627 14.0815 17.6796 13.3641 13.3785C13.3223 13.1313 13.2321 12.8948 13.0989 12.6825C12.9656 12.4702 12.7918 12.2862 12.5875 12.141C12.3831 11.9959 12.1521 11.8924 11.9078 11.8365C11.6634 11.7806 11.4104 11.7734 11.1633 11.8152C10.9161 11.8571 10.6796 11.9472 10.4673 12.0805C10.255 12.2138 10.071 12.3875 9.92582 12.5919C9.78066 12.7963 9.67717 13.0272 9.62127 13.2716C9.56537 13.516 9.55815 13.769 9.60001 14.0161C10.7157 20.6646 14.4231 26.5991 19.9089 30.5174C19.9872 30.5643 20.0687 30.6054 20.1529 30.6405C20.219 30.6793 20.2876 30.7139 20.3581 30.7439C20.5712 30.8291 20.798 30.8749 21.0275 30.8791C21.3084 30.8757 21.5849 30.8092 21.8366 30.6846C21.8556 30.6757 21.8774 30.6799 21.8963 30.6703C22.065 30.5824 22.2196 30.4696 22.3547 30.3357C22.3819 30.3092 22.4 30.2767 22.4257 30.2487C22.5488 30.1134 22.6517 29.9609 22.731 29.7959C22.7575 29.7412 22.7818 29.6888 22.8031 29.6313C22.887 29.4207 22.9322 29.1967 22.9366 28.97L22.9376 24.9113C24.1204 25.2586 25.1862 25.9219 26.0202 26.8297L29.1663 30.2601C29.3356 30.4455 29.5397 30.5956 29.7671 30.702C29.9945 30.8084 30.2406 30.8688 30.4913 30.8799C30.7421 30.8911 30.9926 30.8526 31.2285 30.7668C31.4644 30.681 31.681 30.5494 31.866 30.3798C32.051 30.2101 32.2007 30.0056 32.3066 29.778C32.4124 29.5504 32.4723 29.3042 32.4829 29.0534C32.4934 28.8026 32.4544 28.5522 32.3681 28.3165C32.2817 28.0808 32.1497 27.8644 31.9796 27.6798L28.8345 24.2494ZM27.5537 0.329834H15.8409C4.0862 0.329834 0.6875 3.72481 0.6875 15.4627V27.1764C0.6875 38.9311 4.08154 42.3298 15.8213 42.3298H27.5341C39.2888 42.3298 42.6875 38.9349 42.6875 27.1969V15.4832C42.6875 3.72853 39.2935 0.329834 27.5537 0.329834ZM38.8693 27.1969C38.8693 36.8188 37.1746 38.5117 27.5341 38.5117H15.8213C6.19758 38.5117 4.50568 36.817 4.50568 27.1764V15.4627C4.50568 5.84084 6.20038 4.14802 15.8409 4.14802H27.5537C37.1774 4.14802 38.8693 5.84272 38.8693 15.4832V27.1969Z" fill="#BB8E34"/>
</svg>
