<svg width="15" height="9" viewBox="0 0 15 9" fill="none" xmlns="http://www.w3.org/2000/svg">
<path d="M14.3232 8.03551C14.3232 7.97799 14.2657 7.97799 14.2657 7.92047C14.0356 7.46028 13.5179 6.88506 12.8276 6.2523C12.4825 5.96469 12.3099 5.73459 12.1949 5.61955C12.0223 5.38945 12.0223 5.21689 12.0798 4.9868C12.1374 4.81423 12.3674 4.52661 12.7701 4.0089C13.0002 3.72128 13.1152 3.54872 13.2878 3.37615C14.1507 2.22569 14.5533 1.47789 14.4383 1.13275L14.3808 1.07523C14.3232 1.01771 14.2657 0.960186 14.1507 0.960186C14.0356 0.902663 13.8631 0.902663 13.6905 0.960186H11.5046C11.4471 0.960186 11.4471 0.960186 11.332 0.960186C11.2745 0.960186 11.217 0.960186 11.217 0.960186H11.1595H11.1019L11.0444 1.0177C10.9869 1.07523 10.9869 1.07522 10.9869 1.13275C10.7568 1.7655 10.4692 2.28321 10.1816 2.85844C10.009 3.14605 9.83644 3.43367 9.66387 3.66377C9.4913 3.89386 9.37625 4.06642 9.2612 4.18147C9.14616 4.29652 9.03111 4.35404 8.97359 4.46909C8.91606 4.52661 8.80103 4.58414 8.80103 4.52661C8.7435 4.52661 8.68597 4.52661 8.68597 4.46909C8.62845 4.41156 8.57093 4.35404 8.51341 4.29651C8.45589 4.23899 8.45588 4.12395 8.39836 4.0089C8.39836 3.89385 8.39836 3.77881 8.39836 3.72128C8.39836 3.66376 8.39836 3.4912 8.39836 3.37615C8.39836 3.20358 8.39836 3.08853 8.39836 3.03101C8.39836 2.85844 8.39836 2.62835 8.39836 2.39826C8.39836 2.16817 8.39836 1.9956 8.39836 1.88055C8.39836 1.7655 8.39836 1.59294 8.39836 1.47789C8.39836 1.30532 8.39836 1.19027 8.39836 1.13275C8.39836 1.07522 8.34085 0.960182 8.34085 0.902659C8.28333 0.845136 8.22579 0.787612 8.16827 0.730089C8.11075 0.672566 7.9957 0.672567 7.93818 0.615044C7.65056 0.557521 7.30543 0.5 6.90277 0.5C5.9824 0.5 5.34965 0.557525 5.11955 0.672571C5.00451 0.730094 4.88946 0.787613 4.83194 0.902659C4.71689 1.01771 4.71689 1.07523 4.77441 1.07523C5.06203 1.13275 5.29212 1.24779 5.40717 1.42036L5.4647 1.53542C5.52222 1.59294 5.52221 1.70798 5.57973 1.88055C5.63726 2.05312 5.63726 2.22569 5.63726 2.45578C5.63726 2.80092 5.63726 3.14606 5.63726 3.37615C5.63726 3.66377 5.57973 3.83633 5.57973 4.0089C5.57973 4.18147 5.52222 4.29652 5.4647 4.35404C5.40717 4.46909 5.40717 4.52661 5.34964 4.52661C5.34964 4.52661 5.34964 4.58413 5.29212 4.58413C5.23459 4.58413 5.17707 4.64166 5.06203 4.64166C5.00451 4.64166 4.88946 4.58414 4.83194 4.52661C4.71689 4.46909 4.60185 4.35404 4.54432 4.239C4.42928 4.12395 4.31423 3.95138 4.19918 3.72128C4.08414 3.49119 3.91156 3.2611 3.79651 2.91597L3.68148 2.68588C3.62396 2.57083 3.50891 2.34073 3.39386 2.05312C3.27882 1.7655 3.16377 1.53542 3.04872 1.2478C2.9912 1.13276 2.93368 1.07523 2.87616 1.0177H2.81863C2.81863 1.0177 2.7611 0.960186 2.70358 0.960186C2.64606 0.960186 2.58854 0.902659 2.53102 0.902659H0.460186C0.230094 0.902659 0.11505 0.960181 0.0575265 1.0177L0 1.07523C0 1.07523 0 1.13275 0 1.19027C0 1.2478 3.50922e-06 1.30532 0.0575265 1.42036C0.345142 2.11064 0.690278 2.80092 1.03542 3.4912C1.38055 4.12395 1.7257 4.69918 1.95579 5.10184C2.2434 5.5045 2.47349 5.90716 2.76111 6.2523C3.04872 6.59744 3.22129 6.82753 3.27881 6.94258C3.39386 7.05762 3.45138 7.11514 3.5089 7.17267L3.68148 7.34524C3.79653 7.46028 3.96909 7.63285 4.19918 7.80542C4.42928 7.97799 4.71689 8.15056 5.0045 8.32313C5.29212 8.4957 5.63726 8.61075 5.9824 8.72579C6.38506 8.84084 6.7302 8.89836 7.07533 8.84084H7.93818C8.11075 8.84084 8.2258 8.78331 8.34085 8.66827L8.39836 8.61074C8.39836 8.55322 8.45588 8.55322 8.45588 8.4957C8.45588 8.43817 8.45588 8.38065 8.45588 8.26561C8.45588 8.03552 8.45589 7.86295 8.51341 7.69038C8.57093 7.51781 8.57094 7.40276 8.62846 7.28772C8.68599 7.17267 8.7435 7.11514 8.80103 7.05762C8.85855 7.0001 8.91608 6.94258 8.91608 6.94258H8.97359C9.08863 6.88505 9.26121 6.94257 9.37626 7.05762C9.54883 7.17267 9.72139 7.34524 9.83643 7.51781C9.95148 7.69038 10.1241 7.86295 10.3542 8.09304C10.5842 8.32313 10.7568 8.4957 10.8719 8.55322L11.0444 8.66827C11.1595 8.72579 11.2745 8.78332 11.4471 8.84084C11.6197 8.89836 11.7347 8.89836 11.8497 8.89836L13.8055 8.84084C13.9781 8.84084 14.1507 8.78332 14.2657 8.72579C14.3808 8.66827 14.4383 8.61074 14.4383 8.4957C14.4383 8.43817 14.4383 8.32313 14.4383 8.26561C14.3232 8.15056 14.3232 8.09303 14.3232 8.03551Z" fill="#798797"/>
</svg>
