<svg width="14" height="14" viewBox="0 0 14 14" fill="none" xmlns="http://www.w3.org/2000/svg">
<path d="M14 5.41313C14 5.02525 13.9489 4.57273 13.9489 4.05556C13.8978 3.53838 13.8467 3.02121 13.7956 2.56869C13.6934 2.05151 13.5401 1.66364 13.2336 1.34041C12.9781 1.01717 12.6204 0.823228 12.2628 0.758582C11.0876 0.564643 9.35037 0.5 7.00001 0.5C4.64964 0.5 2.86131 0.564643 1.73722 0.758582C1.37956 0.823228 1.0219 1.01717 0.766424 1.34041C0.510949 1.66364 0.306566 2.05151 0.204376 2.56869C0.102187 3.02121 0.051098 3.47374 0.051098 4.05556C3.11782e-06 4.57273 0 5.02525 0 5.41313C0 5.801 0 6.25353 0 6.9C0 7.54646 0 8.06363 0 8.38687C0 8.77475 0.051098 9.22728 0.051098 9.74445C0.102193 10.2616 0.153282 10.7788 0.204376 11.2313C0.306566 11.7485 0.459854 12.1364 0.766424 12.4596C1.0219 12.7828 1.37956 12.9768 1.73722 13.0414C2.91241 13.2354 4.64964 13.3 7.00001 13.3C9.35037 13.3 11.1387 13.2354 12.2628 13.0414C12.6204 12.9768 12.9781 12.7828 13.2336 12.4596C13.4891 12.1364 13.6934 11.7485 13.7956 11.2313C13.8978 10.7788 13.9489 10.3263 13.9489 9.74445C14 9.22728 14 8.77475 14 8.38687C14 7.99899 14 7.54646 14 6.9C14 6.25353 14 5.73636 14 5.41313ZM9.70803 7.41717L5.67154 10.5848C5.62044 10.6495 5.51825 10.7141 5.41606 10.7141C5.31387 10.7141 5.26278 10.7141 5.16059 10.6495C5.0073 10.5202 4.90511 10.3263 4.90511 10.0677V3.66767C4.90511 3.40909 5.0073 3.21515 5.16059 3.08586C5.31387 2.95657 5.51825 2.95657 5.67154 3.08586L9.70803 6.25353C9.86132 6.38282 9.96351 6.57677 9.96351 6.77071C9.96351 6.96464 9.86132 7.28788 9.70803 7.41717Z" fill="#748191"/>
</svg>
